<?xml version="1.0" encoding="utf-8"?>
<!-- created with bpmn-js / http://bpmn.io -->
<!DOCTYPE svg PUBLIC "-//W3C//DTD SVG 1.1//EN" "http://www.w3.org/Graphics/SVG/1.1/DTD/svg11.dtd">
<svg xmlns="http://www.w3.org/2000/svg" xmlns:xlink="http://www.w3.org/1999/xlink" width="1079" height="363" viewBox="350 155 1079 363" version="1.1"><defs><marker id="sequenceflow-end-white-black" viewBox="0 0 20 20" refX="11" refY="10" markerWidth="10" markerHeight="10" orient="auto"><path d="M 1 5 L 11 10 L 1 15 Z" style="fill: black; stroke-width: 1px; stroke-linecap: round; stroke-dasharray: 10000, 1; stroke: black;"></path></marker></defs><g class="djs-group"><g class="djs-element djs-shape" data-element-id="StartEvent_1" transform="translate(367 429)" style="display: block;"><g class="djs-visual"><circle cx="18" cy="18" r="18" style="stroke: black; stroke-width: 2px; fill: white;"/></g><rect x="0" y="0" width="36" height="36" style="fill: none; stroke-opacity: 0; stroke: white; stroke-width: 15px;" class="djs-hit"/><rect x="-6" y="-6" width="48" height="48" style="fill: none;" class="djs-outline"/></g></g><g class="djs-group"><g class="djs-element djs-shape" data-element-id="StartEvent_1_label" transform="translate(356 465)" style="display: block;"><g class="djs-visual"><text style="font-family: Arial,sans-serif; font-size: 11px;" class="djs-label"><tspan x="0" y="12">Import OSM</tspan><tspan x="29.5" y="24"/></text></g><rect x="0" y="0" width="59" height="24" style="fill: none; stroke-opacity: 0; stroke: white; stroke-width: 15px;" class="djs-hit"/><rect x="-6" y="-6" width="71" height="36" style="fill: none;" class="djs-outline"/></g></g><g class="djs-group"><g class="djs-element djs-shape" data-element-id="ExclusiveGateway_13kdirv" transform="translate(465 422)" style="display: block;"><g class="djs-visual"><polygon points="25,0 50,25 25,50 0,25" style="stroke: black; stroke-width: 2px; fill: white;"/><path d="m 16,15 7.42857142857143,9.714285714285715 -7.42857142857143,9.714285714285715 3.428571428571429,0 5.714285714285715,-7.464228571428572 5.714285714285715,7.464228571428572 3.428571428571429,0 -7.42857142857143,-9.714285714285715 7.42857142857143,-9.714285714285715 -3.428571428571429,0 -5.714285714285715,7.464228571428572 -5.714285714285715,-7.464228571428572 -3.428571428571429,0 z" style="fill: black; stroke-width: 1px; stroke: black;"/></g><rect x="0" y="0" width="50" height="50" style="fill: none; stroke-opacity: 0; stroke: white; stroke-width: 15px;" class="djs-hit"/><rect x="-6" y="-6" width="62" height="62" style="fill: none;" class="djs-outline"/></g></g><g class="djs-group"><g class="djs-element djs-shape" data-element-id="ExclusiveGateway_13kdirv_label" transform="translate(459 476)" style="display: block;"><g class="djs-visual"><text style="font-family: Arial,sans-serif; font-size: 11px;" class="djs-label"><tspan x="6" y="12">PBF_FILE </tspan><tspan x="1" y="24">environment </tspan><tspan x="0" y="36">variable set? </tspan></text></g><rect x="0" y="0" width="62" height="36" style="fill: none; stroke-opacity: 0; stroke: white; stroke-width: 15px;" class="djs-hit"/><rect x="-6" y="-6" width="74" height="48" style="fill: none;" class="djs-outline"/></g></g><g class="djs-group"><g class="djs-element djs-shape" data-element-id="Task_1ug5fxx" transform="translate(766 252)" style="display: block;"><g class="djs-visual"><rect x="0" y="0" width="100" height="80" rx="10" ry="10" style="stroke: black; stroke-width: 2px; fill: white;"/><text style="font-family: Arial,sans-serif; font-size: 12px; fill: black;" class="djs-label"><tspan x="20.5" y="36.5">Download </tspan><tspan x="25" y="50.5">OSM File </tspan></text></g><rect x="0" y="0" width="100" height="80" style="fill: none; stroke-opacity: 0; stroke: white; stroke-width: 15px;" class="djs-hit"/><rect x="-6" y="-6" width="112" height="92" style="fill: none;" class="djs-outline"/></g></g><g class="djs-group"><g class="djs-element djs-shape" data-element-id="Task_0182pol" transform="translate(942 407)" style="display: block;"><g class="djs-visual"><rect x="0" y="0" width="100" height="80" rx="10" ry="10" style="stroke: black; stroke-width: 2px; fill: white;"/><text style="font-family: Arial,sans-serif; font-size: 12px; fill: black;" class="djs-label"><tspan x="50" y="29.5"/><tspan x="17.5" y="43.5">Sanatize for </tspan><tspan x="33" y="57.5">Import </tspan></text></g><rect x="0" y="0" width="100" height="80" style="fill: none; stroke-opacity: 0; stroke: white; stroke-width: 15px;" class="djs-hit"/><rect x="-6" y="-6" width="112" height="92" style="fill: none;" class="djs-outline"/></g></g><g class="djs-group"><g class="djs-element djs-shape" data-element-id="Task_1ubxc6s" transform="translate(529 252)" style="display: block;"><g class="djs-visual"><rect x="0" y="0" width="100" height="80" rx="10" ry="10" style="stroke: black; stroke-width: 2px; fill: white;"/><text style="font-family: Arial,sans-serif; font-size: 12px; fill: black;" class="djs-label"><tspan x="13" y="29.5">Check if OSM </tspan><tspan x="18" y="43.5">File already </tspan><tspan x="16" y="57.5">downloaded </tspan></text></g><rect x="0" y="0" width="100" height="80" style="fill: none; stroke-opacity: 0; stroke: white; stroke-width: 15px;" class="djs-hit"/><rect x="-6" y="-6" width="112" height="92" style="fill: none;" class="djs-outline"/></g></g><g class="djs-group"><g class="djs-element djs-shape" data-element-id="ExclusiveGateway_1ceanz8" transform="translate(669 267)" style="display: block;"><g class="djs-visual"><polygon points="25,0 50,25 25,50 0,25" style="stroke: black; stroke-width: 2px; fill: white;"/><path d="m 16,15 7.42857142857143,9.714285714285715 -7.42857142857143,9.714285714285715 3.428571428571429,0 5.714285714285715,-7.464228571428572 5.714285714285715,7.464228571428572 3.428571428571429,0 -7.42857142857143,-9.714285714285715 7.42857142857143,-9.714285714285715 -3.428571428571429,0 -5.714285714285715,7.464228571428572 -5.714285714285715,-7.464228571428572 -3.428571428571429,0 z" style="fill: black; stroke-width: 1px; stroke: black;"/></g><rect x="0" y="0" width="50" height="50" style="fill: none; stroke-opacity: 0; stroke: white; stroke-width: 15px;" class="djs-hit"/><rect x="-6" y="-6" width="62" height="62" style="fill: none;" class="djs-outline"/></g></g><g class="djs-group"><g class="djs-element djs-shape" data-element-id="ExclusiveGateway_1ceanz8_label" transform="translate(662 234)" style="display: block;"><g class="djs-visual"><text style="font-family: Arial,sans-serif; font-size: 11px;" class="djs-label"><tspan x="14" y="12">already </tspan><tspan x="0" y="24">downloaded? </tspan></text></g><rect x="0" y="0" width="64" height="24" style="fill: none; stroke-opacity: 0; stroke: white; stroke-width: 15px;" class="djs-hit"/><rect x="-6" y="-6" width="76" height="36" style="fill: none;" class="djs-outline"/></g></g><g class="djs-group"><g class="djs-element djs-shape" data-element-id="Task_1trblj3" transform="translate(1083 407)" style="display: block;"><g class="djs-visual"><rect x="0" y="0" width="100" height="80" rx="10" ry="10" style="stroke: black; stroke-width: 2px; fill: white;"/><text style="font-family: Arial,sans-serif; font-size: 12px; fill: black;" class="djs-label"><tspan x="6.5" y="36.5">Import OSM File</tspan><tspan x="16" y="50.5">with imposm </tspan></text></g><rect x="0" y="0" width="100" height="80" style="fill: none; stroke-opacity: 0; stroke: white; stroke-width: 15px;" class="djs-hit"/><rect x="-6" y="-6" width="112" height="92" style="fill: none;" class="djs-outline"/></g></g><g class="djs-group"><g class="djs-element djs-shape" data-element-id="TextAnnotation_1c7andu" transform="translate(489 161)" style="display: block;"><g class="djs-visual"><rect x="0" y="0" width="179" height="52" rx="0" ry="0" style="stroke: none; stroke-width: 2px; fill: none;"/><path d="m 0, 0 m 10,0 l -10,0 l 0,52 l 10,0" style="fill: none; stroke-width: 2px; stroke: black;"/><text style="font-family: Arial,sans-serif; font-size: 12px;" class="djs-label"><tspan x="5" y="15.5">check if filename in </tspan><tspan x="5" y="29.5">PBF_FILE_URL already </tspan><tspan x="5" y="43.5">present in DATA_DIR </tspan></text></g><rect x="0" y="0" width="179" height="52" style="fill: none; stroke-opacity: 0; stroke: white; stroke-width: 15px;" class="djs-hit"/><rect x="-6" y="-6" width="191" height="64" style="fill: none;" class="djs-outline"/></g></g><g class="djs-group"><g class="djs-element djs-shape" data-element-id="Task_1loobnn" transform="translate(1222 407)" style="display: block;"><g class="djs-visual"><rect x="0" y="0" width="100" height="80" rx="10" ry="10" style="stroke: black; stroke-width: 2px; fill: white;"/><text style="font-family: Arial,sans-serif; font-size: 12px; fill: black;" class="djs-label"><tspan x="13" y="36.5">Import Helper </tspan><tspan x="32" y="50.5">Tables </tspan></text></g><rect x="0" y="0" width="100" height="80" style="fill: none; stroke-opacity: 0; stroke: white; stroke-width: 15px;" class="djs-hit"/><rect x="-6" y="-6" width="112" height="92" style="fill: none;" class="djs-outline"/></g></g><g class="djs-group"><g class="djs-element djs-shape" data-element-id="EndEvent_0uoe851" transform="translate(1370 429)" style="display: block;"><g class="djs-visual"><circle cx="18" cy="18" r="18" style="stroke: black; stroke-width: 4px; fill: white;"/></g><rect x="0" y="0" width="36" height="36" style="fill: none; stroke-opacity: 0; stroke: white; stroke-width: 15px;" class="djs-hit"/><rect x="-6" y="-6" width="48" height="48" style="fill: none;" class="djs-outline"/></g></g><g class="djs-group"><g class="djs-element djs-connection" data-element-id="SequenceFlow_09c1b9x" style="display: block;"><g class="djs-visual"><path d="m  515,447L942,447 " style="fill: none; stroke-width: 2px; stroke: black; stroke-linejoin: round; marker-end: url('#sequenceflow-end-white-black');"/></g><polyline points="515,447 942,447 " style="fill: none; stroke-opacity: 0; stroke: white; stroke-width: 15px;" class="djs-hit"/><rect x="509" y="441" width="439" height="12" style="fill: none;" class="djs-outline"/></g></g><g class="djs-group"><g class="djs-element djs-shape" data-element-id="SequenceFlow_09c1b9x_label" transform="translate(523 429)" style="display: block;"><g class="djs-visual"><text style="font-family: Arial,sans-serif; font-size: 11px;" class="djs-label"><tspan x="0" y="12">yes</tspan></text></g><rect x="0" y="0" width="18" height="12" style="fill: none; stroke-opacity: 0; stroke: white; stroke-width: 15px;" class="djs-hit"/><rect x="-6" y="-6" width="30" height="24" style="fill: none;" class="djs-outline"/></g></g><g class="djs-group"><g class="djs-element djs-connection" data-element-id="SequenceFlow_00s6098" style="display: block;"><g class="djs-visual"><path d="m  490,422L490,292 L529,292 " style="fill: none; stroke-width: 2px; stroke: black; stroke-linejoin: round; marker-end: url('#sequenceflow-end-white-black');"/></g><polyline points="490,422 490,292 529,292 " style="fill: none; stroke-opacity: 0; stroke: white; stroke-width: 15px;" class="djs-hit"/><rect x="484" y="286" width="51" height="142" style="fill: none;" class="djs-outline"/></g></g><g class="djs-group"><g class="djs-element djs-shape" data-element-id="SequenceFlow_00s6098_label" transform="translate(499 395)" style="display: block;"><g class="djs-visual"><text style="font-family: Arial,sans-serif; font-size: 11px;" class="djs-label"><tspan x="0" y="12">no</tspan></text></g><rect x="0" y="0" width="12" height="12" style="fill: none; stroke-opacity: 0; stroke: white; stroke-width: 15px;" class="djs-hit"/><rect x="-6" y="-6" width="24" height="24" style="fill: none;" class="djs-outline"/></g></g><g class="djs-group"><g class="djs-element djs-connection" data-element-id="SequenceFlow_0ecdr8b" style="display: block;"><g class="djs-visual"><path d="m  629,292L669,292 " style="fill: none; stroke-width: 2px; stroke: black; stroke-linejoin: round; marker-end: url('#sequenceflow-end-white-black');"/></g><polyline points="629,292 669,292 " style="fill: none; stroke-opacity: 0; stroke: white; stroke-width: 15px;" class="djs-hit"/><rect x="623" y="286" width="52" height="12" style="fill: none;" class="djs-outline"/></g></g><g class="djs-group"><g class="djs-element djs-shape" data-element-id="SequenceFlow_0ecdr8b_label" transform="translate(604 271)" style="display: none;"><g class="djs-visual"><text style="font-family: Arial,sans-serif; font-size: 11px;" class="djs-label"><tspan x="0" y="12"/></text></g><rect x="0" y="0" width="90" height="12" style="fill: none; stroke-opacity: 0; stroke: white; stroke-width: 15px;" class="djs-hit"/><rect x="-6" y="-6" width="102" height="24" style="fill: none;" class="djs-outline"/></g></g><g class="djs-group"><g class="djs-element djs-connection" data-element-id="SequenceFlow_18ituac" style="display: block;"><g class="djs-visual"><path d="m  719,292L766,292 " style="fill: none; stroke-width: 2px; stroke: black; stroke-linejoin: round; marker-end: url('#sequenceflow-end-white-black');"/></g><polyline points="719,292 766,292 " style="fill: none; stroke-opacity: 0; stroke: white; stroke-width: 15px;" class="djs-hit"/><rect x="713" y="286" width="59" height="12" style="fill: none;" class="djs-outline"/></g></g><g class="djs-group"><g class="djs-element djs-shape" data-element-id="SequenceFlow_18ituac_label" transform="translate(725 273)" style="display: block;"><g class="djs-visual"><text style="font-family: Arial,sans-serif; font-size: 11px;" class="djs-label"><tspan x="0" y="12">no</tspan></text></g><rect x="0" y="0" width="12" height="12" style="fill: none; stroke-opacity: 0; stroke: white; stroke-width: 15px;" class="djs-hit"/><rect x="-6" y="-6" width="24" height="24" style="fill: none;" class="djs-outline"/></g></g><g class="djs-group"><g class="djs-element djs-connection" data-element-id="SequenceFlow_118zf3t" style="display: block;"><g class="djs-visual"><path d="m  866,292L904,292 L904,447 L942,447 " style="fill: none; stroke-width: 2px; stroke: black; stroke-linejoin: round; marker-end: url('#sequenceflow-end-white-black');"/></g><polyline points="866,292 904,292 904,447 942,447 " style="fill: none; stroke-opacity: 0; stroke: white; stroke-width: 15px;" class="djs-hit"/><rect x="860" y="286" width="88" height="167" style="fill: none;" class="djs-outline"/></g></g><g class="djs-group"><g class="djs-element djs-shape" data-element-id="SequenceFlow_118zf3t_label" transform="translate(874 364)" style="display: none;"><g class="djs-visual"><text style="font-family: Arial,sans-serif; font-size: 11px;" class="djs-label"><tspan x="0" y="12"/></text></g><rect x="0" y="0" width="90" height="12" style="fill: none; stroke-opacity: 0; stroke: white; stroke-width: 15px;" class="djs-hit"/><rect x="-6" y="-6" width="102" height="24" style="fill: none;" class="djs-outline"/></g></g><g class="djs-group"><g class="djs-element djs-connection" data-element-id="SequenceFlow_1fukl6u" style="display: block;"><g class="djs-visual"><path d="m  694,317L694,447 L942,447 " style="fill: none; stroke-width: 2px; stroke: black; stroke-linejoin: round; marker-end: url('#sequenceflow-end-white-black');"/></g><polyline points="694,317 694,447 942,447 " style="fill: none; stroke-opacity: 0; stroke: white; stroke-width: 15px;" class="djs-hit"/><rect x="688" y="311" width="260" height="142" style="fill: none;" class="djs-outline"/></g></g><g class="djs-group"><g class="djs-element djs-shape" data-element-id="SequenceFlow_1fukl6u_label" transform="translate(701 331)" style="display: block;"><g class="djs-visual"><text style="font-family: Arial,sans-serif; font-size: 11px;" class="djs-label"><tspan x="0" y="12">yes</tspan></text></g><rect x="0" y="0" width="18" height="12" style="fill: none; stroke-opacity: 0; stroke: white; stroke-width: 15px;" class="djs-hit"/><rect x="-6" y="-6" width="30" height="24" style="fill: none;" class="djs-outline"/></g></g><g class="djs-group"><g class="djs-element djs-connection" data-element-id="SequenceFlow_0sk2oxt" style="display: block;"><g class="djs-visual"><path d="m  403,447L465,447 " style="fill: none; stroke-width: 2px; stroke: black; stroke-linejoin: round; marker-end: url('#sequenceflow-end-white-black');"/></g><polyline points="403,447 465,447 " style="fill: none; stroke-opacity: 0; stroke: white; stroke-width: 15px;" class="djs-hit"/><rect x="397" y="441" width="74" height="12" style="fill: none;" class="djs-outline"/></g></g><g class="djs-group"><g class="djs-element djs-shape" data-element-id="SequenceFlow_0sk2oxt_label" transform="translate(389 426)" style="display: none;"><g class="djs-visual"><text style="font-family: Arial,sans-serif; font-size: 11px;" class="djs-label"><tspan x="0" y="12"/></text></g><rect x="0" y="0" width="90" height="12" style="fill: none; stroke-opacity: 0; stroke: white; stroke-width: 15px;" class="djs-hit"/><rect x="-6" y="-6" width="102" height="24" style="fill: none;" class="djs-outline"/></g></g><g class="djs-group"><g class="djs-element djs-connection" data-element-id="SequenceFlow_163565e" style="display: block;"><g class="djs-visual"><path d="m  1042,447L1083,447 " style="fill: none; stroke-width: 2px; stroke: black; stroke-linejoin: round; marker-end: url('#sequenceflow-end-white-black');"/></g><polyline points="1042,447 1083,447 " style="fill: none; stroke-opacity: 0; stroke: white; stroke-width: 15px;" class="djs-hit"/><rect x="1036" y="441" width="53" height="12" style="fill: none;" class="djs-outline"/></g></g><g class="djs-group"><g class="djs-element djs-shape" data-element-id="SequenceFlow_163565e_label" transform="translate(1018 426)" style="display: none;"><g class="djs-visual"><text style="font-family: Arial,sans-serif; font-size: 11px;" class="djs-label"><tspan x="0" y="12"/></text></g><rect x="0" y="0" width="90" height="12" style="fill: none; stroke-opacity: 0; stroke: white; stroke-width: 15px;" class="djs-hit"/><rect x="-6" y="-6" width="102" height="24" style="fill: none;" class="djs-outline"/></g></g><g class="djs-group"><g class="djs-element djs-connection" data-element-id="SequenceFlow_0zz77mk" style="display: block;"><g class="djs-visual"><path d="m  1183,447L1222,447 " style="fill: none; stroke-width: 2px; stroke: black; stroke-linejoin: round; marker-end: url('#sequenceflow-end-white-black');"/></g><polyline points="1183,447 1222,447 " style="fill: none; stroke-opacity: 0; stroke: white; stroke-width: 15px;" class="djs-hit"/><rect x="1177" y="441" width="51" height="12" style="fill: none;" class="djs-outline"/></g></g><g class="djs-group"><g class="djs-element djs-connection" data-element-id="Association_1hitgrn" style="display: block;"><g class="djs-visual"><polyline points="579,252 579,213 " style="fill: none; stroke: black; stroke-width: 2px; stroke-dasharray: 0.5, 5; stroke-linecap: round; stroke-linejoin: round;"/></g><polyline points="579,252 579,213 " style="fill: none; stroke-opacity: 0; stroke: white; stroke-width: 15px;" class="djs-hit"/><rect x="573" y="207" width="12" height="51" style="fill: none;" class="djs-outline"/></g></g><g class="djs-group"><g class="djs-element djs-shape" data-element-id="SequenceFlow_0zz77mk_label" transform="translate(1157.5 426)" style="display: none;"><g class="djs-visual"><text style="font-family: Arial,sans-serif; font-size: 11px;" class="djs-label"><tspan x="0" y="12"/></text></g><rect x="0" y="0" width="90" height="12" style="fill: none; stroke-opacity: 0; stroke: white; stroke-width: 15px;" class="djs-hit"/><rect x="-6" y="-6" width="102" height="24" style="fill: none;" class="djs-outline"/></g></g><g class="djs-group"><g class="djs-element djs-connection" data-element-id="SequenceFlow_0eb2o1x" style="display: block;"><g class="djs-visual"><path d="m  1322,447L1370,447 " style="fill: none; stroke-width: 2px; stroke: black; stroke-linejoin: round; marker-end: url('#sequenceflow-end-white-black');"/></g><polyline points="1322,447 1370,447 " style="fill: none; stroke-opacity: 0; stroke: white; stroke-width: 15px;" class="djs-hit"/><rect x="1316" y="441" width="60" height="12" style="fill: none;" class="djs-outline"/></g></g><g class="djs-group"><g class="djs-element djs-shape" data-element-id="SequenceFlow_0eb2o1x_label" transform="translate(1346 426)" style="display: none;"><g class="djs-visual"><text style="font-family: Arial,sans-serif; font-size: 11px;" class="djs-label"><tspan x="0" y="12"/></text></g><rect x="0" y="0" width="0" height="12" style="fill: none; stroke-opacity: 0; stroke: white; stroke-width: 15px;" class="djs-hit"/><rect x="-6" y="-6" width="12" height="24" style="fill: none;" class="djs-outline"/></g></g><g class="djs-group"><g class="djs-element djs-shape" data-element-id="EndEvent_0uoe851_label" transform="translate(1353 469)" style="display: block;"><g class="djs-visual"><text style="font-family: Arial,sans-serif; font-size: 11px;" class="djs-label"><tspan x="0" y="12">OSM imported</tspan><tspan x="35" y="24"/></text></g><rect x="0" y="0" width="70" height="24" style="fill: none; stroke-opacity: 0; stroke: white; stroke-width: 15px;" class="djs-hit"/><rect x="-6" y="-6" width="82" height="36" style="fill: none;" class="djs-outline"/></g></g><g style="pointer-events: none;" class="djs-drag-group" transform="translate(486 231)"/><g style="pointer-events: none;" class="djs-drag-group" transform="translate(-132 1)"/><g style="pointer-events: none;" class="djs-drag-group" transform="translate(-9 12)"/><g style="pointer-events: none;" class="djs-drag-group" transform="translate(41 8)"/><g style="pointer-events: none;" class="djs-drag-group" transform="translate(-59 0)"/><g style="pointer-events: none;" class="djs-drag-group" transform="translate(-25 13)"/><g style="pointer-events: none;" class="djs-drag-group" transform="translate(15 0)"/><g style="pointer-events: none;" class="djs-drag-group" transform="translate(-44 0)"/><g style="pointer-events: none;" class="djs-drag-group" transform="translate(-90 0)"/><g style="pointer-events: none;" class="djs-drag-group" transform="translate(-123 0)"/><g style="pointer-events: none;" class="djs-drag-group" transform="translate(-153 0)"/><g style="pointer-events: none;" class="djs-drag-group" transform="translate(-199 0)"/><g style="pointer-events: none;" class="djs-drag-group" transform="translate(27 0)"/><g style="pointer-events: none;" class="djs-drag-group" transform="translate(385 276)"/><g style="pointer-events: none;" class="djs-drag-group" transform="translate(-11 17)"/><g style="pointer-events: none;" class="djs-drag-group" transform="translate(86 0)"/><g style="pointer-events: none;" class="djs-drag-group" transform="translate(-60 0)"/><g style="pointer-events: none;" class="djs-drag-group" transform="translate(7 0)"/><g style="pointer-events: none;" class="djs-drag-group" transform="translate(136 -146)"/><g style="pointer-events: none;" class="djs-drag-group" transform="translate(-300 256)"/><g style="pointer-events: none;" class="djs-drag-group" transform="translate(216 86)"/><g style="pointer-events: none;" class="djs-drag-group" transform="translate(10 -93)"/><g style="pointer-events: none;" class="djs-drag-group" transform="translate(-20 -54)"/><g style="pointer-events: none;" class="djs-drag-group" transform="translate(-5 -15)"/><g style="pointer-events: none;" class="djs-drag-group" transform="translate(-14 0)"/><g style="pointer-events: none;" class="djs-drag-group" transform="translate(-28 0)"/><g style="pointer-events: none;" class="djs-drag-group" transform="translate(-40 17)"/><g style="pointer-events: none;" class="djs-drag-group" transform="translate(-37 0)"/><g style="pointer-events: none;" class="djs-drag-group" transform="translate(-17 0)"/><g style="pointer-events: none;" class="djs-drag-group" transform="translate(-207 0)"/><g style="pointer-events: none;" class="djs-drag-group" transform="translate(-106 0)"/><g style="pointer-events: none;" class="djs-drag-group" transform="translate(-59 0)"/><g style="pointer-events: none;" class="djs-drag-group" transform="translate(-75 0)"/><g style="pointer-events: none;" class="djs-drag-group" transform="translate(-101 0)"/><g style="pointer-events: none;" class="djs-drag-group" transform="translate(-21 0)"/><g style="pointer-events: none;" class="djs-drag-group" transform="translate(16 0)"/><g style="pointer-events: none;" class="djs-drag-group" transform="translate(16 0)"/><g style="pointer-events: none;" class="djs-drag-group" transform="translate(-244 0)"/><g style="pointer-events: none;" class="djs-drag-group" transform="translate(27 0)"/><g style="pointer-events: none;" class="djs-drag-group" transform="translate(42 0)"/><g style="pointer-events: none;" class="djs-drag-group" transform="translate(-198 51)"/><g style="pointer-events: none;" class="djs-drag-group" transform="translate(-32 4)"/><g style="pointer-events: none;" class="djs-drag-group" transform="translate(33 0)"/><g style="pointer-events: none;" class="djs-drag-group" transform="translate(159 327)"/><g style="pointer-events: none;" class="djs-drag-group" transform="translate(305 138)"/><g style="pointer-events: none;" class="djs-drag-group" transform="translate(-9 -17)"/><g style="pointer-events: none;" class="djs-drag-group" transform="translate(-92 125)"/><g style="pointer-events: none;" class="djs-drag-group" transform="translate(-73 3)"/><g style="pointer-events: none;" class="djs-drag-group" transform="translate(10 13)"/><g style="pointer-events: none;" class="djs-drag-group" transform="translate(9 10)"/><g style="pointer-events: none;" class="djs-drag-group" transform="translate(-14 7)"/><g style="pointer-events: none;" class="djs-drag-group" transform="translate(-62 -139.00000000000006)"/><g style="pointer-events: none;" class="djs-drag-group" transform="translate(-15 0)"/><g style="pointer-events: none;" class="djs-drag-group" transform="translate(-4 14)"/><g style="pointer-events: none;" class="djs-drag-group" transform="translate(0 -161)"/><g style="pointer-events: none;" class="djs-drag-group" transform="translate(42 -212)"/><g style="pointer-events: none;" class="djs-drag-group" transform="translate(0 -162)"/><g style="pointer-events: none;" class="djs-drag-group" transform="translate(34 111)"/><g style="pointer-events: none;" class="djs-drag-group" transform="translate(34 0)"/><g style="pointer-events: none;" class="djs-drag-group" transform="translate(90 0)"/><g style="pointer-events: none;" class="djs-drag-group" transform="translate(49 0)"/><g style="pointer-events: none;" class="djs-drag-group" transform="translate(-96 0)"/><g style="pointer-events: none;" class="djs-drag-group" transform="translate(47 0)"/><g style="pointer-events: none;" class="djs-drag-group" transform="translate(61 0)"/><g style="pointer-events: none;" class="djs-drag-group" transform="translate(-467.00000000000006 -15.788757396449682)"/><g style="pointer-events: none;" class="djs-drag-group" transform="translate(-80 0.21124260355031765)"/><g style="pointer-events: none;" class="djs-drag-group" transform="translate(42 0.21124260355031765)"/><g style="pointer-events: none;" class="djs-drag-group" transform="translate(502.00000000000006 80)"/><g style="pointer-events: none;" class="djs-drag-group" transform="translate(102 157)"/><g style="pointer-events: none;" class="djs-drag-group" transform="translate(102 -1)"/><g style="pointer-events: none;" class="djs-drag-group" transform="translate(-201 -157.00000000000003)"/><g style="pointer-events: none;" class="djs-drag-group" transform="translate(-91 -24)"/><g style="pointer-events: none;" class="djs-drag-group" transform="translate(-26 0)"/><g style="pointer-events: none;" class="djs-drag-group" transform="translate(-11 0)"/><g style="pointer-events: none;" class="djs-drag-group" transform="translate(-32 -10)"/><g style="pointer-events: none;" class="djs-drag-group" transform="translate(-8 -1)"/><g style="pointer-events: none;" class="djs-drag-group" transform="translate(127 13)"/><g style="pointer-events: none;" class="djs-drag-group" transform="translate(-8 0)"/><g style="pointer-events: none;" class="djs-drag-group" transform="translate(-83 0)"/><g style="pointer-events: none;" class="djs-drag-group" transform="translate(-39 -183)"/><g style="pointer-events: none;" class="djs-drag-group" transform="translate(-17 0)"/><g style="pointer-events: none;" class="djs-drag-group" transform="translate(-8 0)"/><g style="pointer-events: none;" class="djs-drag-group" transform="translate(-10 0)"/><g style="pointer-events: none;" class="djs-drag-group" transform="translate(4 0)"/><g style="pointer-events: none;" class="djs-drag-group" transform="translate(140 -91)"/><g style="pointer-events: none;" class="djs-drag-group" transform="translate(259 -20)"/><g style="pointer-events: none;" class="djs-drag-group" transform="translate(5 0)"/><g style="pointer-events: none;" class="djs-drag-group" transform="translate(0 -87)"/><g style="pointer-events: none;" class="djs-drag-group" transform="translate(-267 3)"/><g style="pointer-events: none;" class="djs-drag-group" transform="translate(1 -45)"/><g style="pointer-events: none;" class="djs-drag-group" transform="translate(0 44)"/><g style="pointer-events: none;" class="djs-drag-group" transform="translate(35 0)"/><g style="pointer-events: none;" class="djs-drag-group" transform="translate(-22 0)"/><g style="pointer-events: none;" class="djs-drag-group" transform="translate(-42 0)"/><g style="pointer-events: none;" class="djs-drag-group" transform="translate(-78 0)"/><g style="pointer-events: none;" class="djs-drag-group" transform="translate(-32 0)"/><g style="pointer-events: none;" class="djs-drag-group" transform="translate(-12 2)"/><g style="pointer-events: none;" class="djs-drag-group" transform="translate(172 153)"/><g style="pointer-events: none;" class="djs-drag-group" transform="translate(-18 13)"/><g style="pointer-events: none;" class="djs-drag-group" transform="translate(-60 34)"/><g style="pointer-events: none;" class="djs-drag-group" transform="translate(-81 45)"/><g style="pointer-events: none;" class="djs-drag-group" transform="translate(-4 10)"/><g style="pointer-events: none;" class="djs-drag-group" transform="translate(-28 10)"/><g style="pointer-events: none;" class="djs-drag-group" transform="translate(-13 10)"/><g style="pointer-events: none;" class="djs-drag-group" transform="translate(-60 10)"/><g style="pointer-events: none;" class="djs-drag-group" transform="translate(-141 0)"/><g style="pointer-events: none;" class="djs-drag-group" transform="translate(-211 0)"/><g style="pointer-events: none;" class="djs-drag-group" transform="translate(-301 0)"/><g style="pointer-events: none;" class="djs-drag-group" transform="translate(-348 0)"/><g style="pointer-events: none;" class="djs-drag-group" transform="translate(-376 0)"/><g style="pointer-events: none;" class="djs-drag-group" transform="translate(-401 0)"/><g style="pointer-events: none;" class="djs-drag-group" transform="translate(-421 0)"/><g style="pointer-events: none;" class="djs-drag-group" transform="translate(-441 0)"/><g style="pointer-events: none;" class="djs-drag-group" transform="translate(-453 0)"/><g style="pointer-events: none;" class="djs-drag-group" transform="translate(194 0)"/><g style="pointer-events: none;" class="djs-drag-group" transform="translate(14 -127)"/><g style="pointer-events: none;" class="djs-drag-group" transform="translate(7 0)"/><g style="pointer-events: none;" class="djs-drag-group" transform="translate(-57 0)"/></svg>