<?xml version="1.0" encoding="utf-8"?>
<!-- created with bpmn-js / http://bpmn.io -->
<!DOCTYPE svg PUBLIC "-//W3C//DTD SVG 1.1//EN" "http://www.w3.org/Graphics/SVG/1.1/DTD/svg11.dtd">
<svg xmlns="http://www.w3.org/2000/svg" xmlns:xlink="http://www.w3.org/1999/xlink" width="575" height="154" viewBox="492 335 575 154" version="1.1"><defs><marker id="sequenceflow-end-white-black" viewBox="0 0 20 20" refX="11" refY="10" markerWidth="10" markerHeight="10" orient="auto"><path d="M 1 5 L 11 10 L 1 15 Z" style="fill: black; stroke-width: 1px; stroke-linecap: round; stroke-dasharray: 10000, 1; stroke: black;"></path></marker></defs><g class="djs-group"><g class="djs-element djs-shape" data-element-id="Task_0iw9als" transform="translate(795 390)" style="display: block;"><g class="djs-visual"><rect x="0" y="0" width="100" height="80" rx="10" ry="10" style="stroke: black; stroke-width: 2px; fill: white;"/><text style="font-family: Arial,sans-serif; font-size: 12px; fill: black;" class="djs-label"><tspan x="33" y="22.5">create </tspan><tspan x="23" y="36.5">database, </tspan><tspan x="8.5" y="50.5">extensions and </tspan><tspan x="14.5" y="64.5">custom types </tspan></text></g><rect x="0" y="0" width="100" height="80" style="fill: none; stroke-opacity: 0; stroke: white; stroke-width: 15px;" class="djs-hit"/><rect x="-6" y="-6" width="112" height="92" style="fill: none;" class="djs-outline"/></g></g><g class="djs-group"><g class="djs-element djs-shape" data-element-id="EndEvent_05t5dw6" transform="translate(1020 412)" style="display: block;"><g class="djs-visual"><circle cx="18" cy="18" r="18" style="stroke: black; stroke-width: 4px; fill: white;"/></g><rect x="0" y="0" width="36" height="36" style="fill: none; stroke-opacity: 0; stroke: white; stroke-width: 15px;" class="djs-hit"/><rect x="-6" y="-6" width="48" height="48" style="fill: none;" class="djs-outline"/></g></g><g class="djs-group"><g class="djs-element djs-shape" data-element-id="EndEvent_05t5dw6_label" transform="translate(1016 452)" style="display: block;"><g class="djs-visual"><text style="font-family: Arial,sans-serif; font-size: 11px;" class="djs-label"><tspan x="0" y="12">database </tspan><tspan x="1" y="24">initialized </tspan></text></g><rect x="0" y="0" width="45" height="24" style="fill: none; stroke-opacity: 0; stroke: white; stroke-width: 15px;" class="djs-hit"/><rect x="-6" y="-6" width="57" height="36" style="fill: none;" class="djs-outline"/></g></g><g class="djs-group"><g class="djs-element djs-shape" data-element-id="ExclusiveGateway_1qqqhoz" transform="translate(644 405)" style="display: block;"><g class="djs-visual"><polygon points="25,0 50,25 25,50 0,25" style="stroke: black; stroke-width: 2px; fill: white;"/><path d="m 16,15 7.42857142857143,9.714285714285715 -7.42857142857143,9.714285714285715 3.428571428571429,0 5.714285714285715,-7.464228571428572 5.714285714285715,7.464228571428572 3.428571428571429,0 -7.42857142857143,-9.714285714285715 7.42857142857143,-9.714285714285715 -3.428571428571429,0 -5.714285714285715,7.464228571428572 -5.714285714285715,-7.464228571428572 -3.428571428571429,0 z" style="fill: black; stroke-width: 1px; stroke: black;"/></g><rect x="0" y="0" width="50" height="50" style="fill: none; stroke-opacity: 0; stroke: white; stroke-width: 15px;" class="djs-hit"/><rect x="-6" y="-6" width="62" height="62" style="fill: none;" class="djs-outline"/></g></g><g class="djs-group"><g class="djs-element djs-shape" data-element-id="ExclusiveGateway_1qqqhoz_label" transform="translate(625 459)" style="display: block;"><g class="djs-visual"><text style="font-family: Arial,sans-serif; font-size: 11px;" class="djs-label"><tspan x="0" y="12">already initialized?</tspan><tspan x="44" y="24"/></text></g><rect x="0" y="0" width="88" height="24" style="fill: none; stroke-opacity: 0; stroke: white; stroke-width: 15px;" class="djs-hit"/><rect x="-6" y="-6" width="100" height="36" style="fill: none;" class="djs-outline"/></g></g><g class="djs-group"><g class="djs-element djs-shape selected" data-element-id="StartEvent_1" transform="translate(522 412)" style="display: block;"><g class="djs-visual"><circle cx="18" cy="18" r="18" style="stroke: black; stroke-width: 2px; fill: white;"/></g><rect x="0" y="0" width="36" height="36" style="fill: none; stroke-opacity: 0; stroke: white; stroke-width: 15px;" class="djs-hit"/><rect x="-6" y="-6" width="48" height="48" style="fill: none;" class="djs-outline"/></g></g><g class="djs-group"><g class="djs-element djs-connection" data-element-id="SequenceFlow_1upxef6" style="display: block;"><g class="djs-visual"><path d="m  694,430L795,430 " style="fill: none; stroke-width: 2px; stroke: black; stroke-linejoin: round; marker-end: url('#sequenceflow-end-white-black');"/></g><polyline points="694,430 795,430 " style="fill: none; stroke-opacity: 0; stroke: white; stroke-width: 15px;" class="djs-hit"/><rect x="688" y="424" width="113" height="12" style="fill: none;" class="djs-outline"/></g></g><g class="djs-group"><g class="djs-element djs-connection" data-element-id="SequenceFlow_0dlaky4" style="display: block;"><g class="djs-visual"><path d="m  669,405L669,341 L1038,341 L1038,412 " style="fill: none; stroke-width: 2px; stroke: black; stroke-linejoin: round; marker-end: url('#sequenceflow-end-white-black');"/></g><polyline points="669,405 669,341 1038,341 1038,412 " style="fill: none; stroke-opacity: 0; stroke: white; stroke-width: 15px;" class="djs-hit"/><rect x="663" y="335" width="381" height="83" style="fill: none;" class="djs-outline"/></g></g><g class="djs-group"><g class="djs-element djs-shape" data-element-id="SequenceFlow_0dlaky4_label" transform="translate(647 371)" style="display: block;"><g class="djs-visual"><text style="font-family: Arial,sans-serif; font-size: 11px;" class="djs-label"><tspan x="0" y="12">yes</tspan></text></g><rect x="0" y="0" width="18" height="12" style="fill: none; stroke-opacity: 0; stroke: white; stroke-width: 15px;" class="djs-hit"/><rect x="-6" y="-6" width="30" height="24" style="fill: none;" class="djs-outline"/></g></g><g class="djs-group"><g class="djs-element djs-shape" data-element-id="SequenceFlow_1upxef6_label" transform="translate(707 413)" style="display: block;"><g class="djs-visual"><text style="font-family: Arial,sans-serif; font-size: 11px;" class="djs-label"><tspan x="0" y="12">no</tspan></text></g><rect x="0" y="0" width="12" height="12" style="fill: none; stroke-opacity: 0; stroke: white; stroke-width: 15px;" class="djs-hit"/><rect x="-6" y="-6" width="24" height="24" style="fill: none;" class="djs-outline"/></g></g><g class="djs-group"><g class="djs-element djs-connection" data-element-id="SequenceFlow_1qi30zt" style="display: block;"><g class="djs-visual"><path d="m  895,430L1020,430 " style="fill: none; stroke-width: 2px; stroke: black; stroke-linejoin: round; marker-end: url('#sequenceflow-end-white-black');"/></g><polyline points="895,430 1020,430 " style="fill: none; stroke-opacity: 0; stroke: white; stroke-width: 15px;" class="djs-hit"/><rect x="889" y="424" width="137" height="12" style="fill: none;" class="djs-outline"/></g></g><g class="djs-group"><g class="djs-element djs-shape" data-element-id="SequenceFlow_1qi30zt_label" transform="translate(957.5 409)" style="display: none;"><g class="djs-visual"><text style="font-family: Arial,sans-serif; font-size: 11px;" class="djs-label"><tspan x="0" y="12"/></text></g><rect x="0" y="0" width="0" height="12" style="fill: none; stroke-opacity: 0; stroke: white; stroke-width: 15px;" class="djs-hit"/><rect x="-6" y="-6" width="12" height="24" style="fill: none;" class="djs-outline"/></g></g><g class="djs-group"><g class="djs-element djs-connection" data-element-id="SequenceFlow_1gyrl7h" style="display: block;"><g class="djs-visual"><path d="m  558,430L644,430 " style="fill: none; stroke-width: 2px; stroke: black; stroke-linejoin: round; marker-end: url('#sequenceflow-end-white-black');"/></g><polyline points="558,430 644,430 " style="fill: none; stroke-opacity: 0; stroke: white; stroke-width: 15px;" class="djs-hit"/><rect x="552" y="424" width="98" height="12" style="fill: none;" class="djs-outline"/></g></g><g class="djs-group"><g class="djs-element djs-shape" data-element-id="SequenceFlow_1gyrl7h_label" transform="translate(601 409)" style="display: none;"><g class="djs-visual"><text style="font-family: Arial,sans-serif; font-size: 11px;" class="djs-label"><tspan x="0" y="12"/></text></g><rect x="0" y="0" width="0" height="12" style="fill: none; stroke-opacity: 0; stroke: white; stroke-width: 15px;" class="djs-hit"/><rect x="-6" y="-6" width="12" height="24" style="fill: none;" class="djs-outline"/></g></g><g class="djs-group"><g class="djs-element djs-shape" data-element-id="StartEvent_1_label" transform="translate(498 448)" style="display: block;"><g class="djs-visual"><text style="font-family: Arial,sans-serif; font-size: 11px;" class="djs-label"><tspan x="0" y="12">initialize database</tspan><tspan x="42.5" y="24"/></text></g><rect x="0" y="0" width="85" height="24" style="fill: none; stroke-opacity: 0; stroke: white; stroke-width: 15px;" class="djs-hit"/><rect x="-6" y="-6" width="97" height="36" style="fill: none;" class="djs-outline"/></g></g><g style="pointer-events: none;" class="djs-drag-group" transform="translate(486 231)"/><g style="pointer-events: none;" class="djs-drag-group" transform="translate(-132 1)"/><g style="pointer-events: none;" class="djs-drag-group" transform="translate(-9 12)"/><g style="pointer-events: none;" class="djs-drag-group" transform="translate(41 8)"/><g style="pointer-events: none;" class="djs-drag-group" transform="translate(-59 0)"/><g style="pointer-events: none;" class="djs-drag-group" transform="translate(-25 13)"/><g style="pointer-events: none;" class="djs-drag-group" transform="translate(15 0)"/><g style="pointer-events: none;" class="djs-drag-group" transform="translate(-44 0)"/><g style="pointer-events: none;" class="djs-drag-group" transform="translate(-90 0)"/><g style="pointer-events: none;" class="djs-drag-group" transform="translate(-123 0)"/><g style="pointer-events: none;" class="djs-drag-group" transform="translate(-153 0)"/><g style="pointer-events: none;" class="djs-drag-group" transform="translate(-199 0)"/><g style="pointer-events: none;" class="djs-drag-group" transform="translate(27 0)"/><g style="pointer-events: none;" class="djs-drag-group" transform="translate(385 276)"/><g style="pointer-events: none;" class="djs-drag-group" transform="translate(-11 17)"/><g style="pointer-events: none;" class="djs-drag-group" transform="translate(86 0)"/><g style="pointer-events: none;" class="djs-drag-group" transform="translate(-60 0)"/><g style="pointer-events: none;" class="djs-drag-group" transform="translate(7 0)"/><g style="pointer-events: none;" class="djs-drag-group" transform="translate(136 -146)"/><g style="pointer-events: none;" class="djs-drag-group" transform="translate(-300 256)"/><g style="pointer-events: none;" class="djs-drag-group" transform="translate(216 86)"/><g style="pointer-events: none;" class="djs-drag-group" transform="translate(10 -93)"/><g style="pointer-events: none;" class="djs-drag-group" transform="translate(-20 -54)"/><g style="pointer-events: none;" class="djs-drag-group" transform="translate(-5 -15)"/><g style="pointer-events: none;" class="djs-drag-group" transform="translate(-14 0)"/><g style="pointer-events: none;" class="djs-drag-group" transform="translate(-28 0)"/><g style="pointer-events: none;" class="djs-drag-group" transform="translate(-40 17)"/><g style="pointer-events: none;" class="djs-drag-group" transform="translate(-37 0)"/><g style="pointer-events: none;" class="djs-drag-group" transform="translate(-17 0)"/><g style="pointer-events: none;" class="djs-drag-group" transform="translate(-207 0)"/><g style="pointer-events: none;" class="djs-drag-group" transform="translate(-106 0)"/><g style="pointer-events: none;" class="djs-drag-group" transform="translate(-59 0)"/><g style="pointer-events: none;" class="djs-drag-group" transform="translate(-75 0)"/><g style="pointer-events: none;" class="djs-drag-group" transform="translate(-101 0)"/><g style="pointer-events: none;" class="djs-drag-group" transform="translate(-21 0)"/><g style="pointer-events: none;" class="djs-drag-group" transform="translate(16 0)"/><g style="pointer-events: none;" class="djs-drag-group" transform="translate(16 0)"/><g style="pointer-events: none;" class="djs-drag-group" transform="translate(-244 0)"/><g style="pointer-events: none;" class="djs-drag-group" transform="translate(27 0)"/><g style="pointer-events: none;" class="djs-drag-group" transform="translate(42 0)"/><g style="pointer-events: none;" class="djs-drag-group" transform="translate(-198 51)"/><g style="pointer-events: none;" class="djs-drag-group" transform="translate(-32 4)"/><g style="pointer-events: none;" class="djs-drag-group" transform="translate(33 0)"/></svg>