<?xml version="1.0" encoding="utf-8"?>
<!-- created with bpmn-js / http://bpmn.io -->
<!DOCTYPE svg PUBLIC "-//W3C//DTD SVG 1.1//EN" "http://www.w3.org/Graphics/SVG/1.1/DTD/svg11.dtd">
<svg xmlns="http://www.w3.org/2000/svg" xmlns:xlink="http://www.w3.org/1999/xlink" width="877" height="98" viewBox="327 367 877 98" version="1.1"><defs><marker id="sequenceflow-end-white-black" viewBox="0 0 20 20" refX="11" refY="10" markerWidth="10" markerHeight="10" orient="auto"><path d="M 1 5 L 11 10 L 1 15 Z" style="fill: black; stroke-width: 1px; stroke-linecap: round; stroke-dasharray: 10000, 1; stroke: black;"></path></marker></defs><g class="djs-group"><g class="djs-element djs-shape" data-element-id="Task_0nr8qhh" transform="translate(447 373)" style="display: block;"><g class="djs-visual"><rect x="0" y="0" width="100" height="80" rx="10" ry="10" style="stroke: black; stroke-width: 2px; fill: white;"/><text style="font-family: Arial,sans-serif; font-size: 12px; fill: black;" class="djs-label"><tspan x="25.5" y="22.5">set street </tspan><tspan x="17" y="36.5">attributes by </tspan><tspan x="13" y="50.5">street relation </tspan><tspan x="24.5" y="64.5">members </tspan></text></g><rect x="0" y="0" width="100" height="80" style="fill: none; stroke-opacity: 0; stroke: white; stroke-width: 15px;" class="djs-hit"/><rect x="-6" y="-6" width="112" height="92" style="fill: none;" class="djs-outline"/></g></g><g class="djs-group"><g class="djs-element djs-shape" data-element-id="Task_0vm56jf" transform="translate(582 373)" style="display: block;"><g class="djs-visual"><rect x="0" y="0" width="100" height="80" rx="10" ry="10" style="stroke: black; stroke-width: 2px; fill: white;"/><text style="font-family: Arial,sans-serif; font-size: 12px; fill: black;" class="djs-label"><tspan x="5.5" y="29.5">set street names </tspan><tspan x="21.5" y="43.5">by relation </tspan><tspan x="25" y="57.5">attributes </tspan></text></g><rect x="0" y="0" width="100" height="80" style="fill: none; stroke-opacity: 0; stroke: white; stroke-width: 15px;" class="djs-hit"/><rect x="-6" y="-6" width="112" height="92" style="fill: none;" class="djs-outline"/></g></g><g class="djs-group"><g class="djs-element djs-shape" data-element-id="Task_128sfo1" transform="translate(718 373)" style="display: block;"><g class="djs-visual"><rect x="0" y="0" width="100" height="80" rx="10" ry="10" style="stroke: black; stroke-width: 2px; fill: white;"/><text style="font-family: Arial,sans-serif; font-size: 12px; fill: black;" class="djs-label"><tspan x="23" y="36.5">normalize </tspan><tspan x="15" y="50.5">street names </tspan></text></g><rect x="0" y="0" width="100" height="80" style="fill: none; stroke-opacity: 0; stroke: white; stroke-width: 15px;" class="djs-hit"/><rect x="-6" y="-6" width="112" height="92" style="fill: none;" class="djs-outline"/></g></g><g class="djs-group"><g class="djs-element djs-shape" data-element-id="Task_0sck2vc" transform="translate(855 373)" style="display: block;"><g class="djs-visual"><rect x="0" y="0" width="100" height="80" rx="10" ry="10" style="stroke: black; stroke-width: 2px; fill: white;"/><text style="font-family: Arial,sans-serif; font-size: 12px; fill: black;" class="djs-label"><tspan x="8" y="36.5">set street ids by</tspan><tspan x="18" y="50.5">street name </tspan></text></g><rect x="0" y="0" width="100" height="80" style="fill: none; stroke-opacity: 0; stroke: white; stroke-width: 15px;" class="djs-hit"/><rect x="-6" y="-6" width="112" height="92" style="fill: none;" class="djs-outline"/></g></g><g class="djs-group"><g class="djs-element djs-shape" data-element-id="Task_0idggrd" transform="translate(992 373)" style="display: block;"><g class="djs-visual"><rect x="0" y="0" width="100" height="80" rx="10" ry="10" style="stroke: black; stroke-width: 2px; fill: white;"/><text style="font-family: Arial,sans-serif; font-size: 12px; fill: black;" class="djs-label"><tspan x="25.5" y="29.5">set street </tspan><tspan x="17" y="43.5">attributes by </tspan><tspan x="13" y="57.5">nearest street </tspan></text></g><rect x="0" y="0" width="100" height="80" style="fill: none; stroke-opacity: 0; stroke: white; stroke-width: 15px;" class="djs-hit"/><rect x="-6" y="-6" width="112" height="92" style="fill: none;" class="djs-outline"/></g></g><g class="djs-group"><g class="djs-element djs-shape" data-element-id="StartEvent_1" transform="translate(351 395)" style="display: block;"><g class="djs-visual"><circle cx="18" cy="18" r="18" style="stroke: black; stroke-width: 2px; fill: white;"/></g><rect x="0" y="0" width="36" height="36" style="fill: none; stroke-opacity: 0; stroke: white; stroke-width: 15px;" class="djs-hit"/><rect x="-6" y="-6" width="48" height="48" style="fill: none;" class="djs-outline"/></g></g><g class="djs-group"><g class="djs-element djs-shape selected" data-element-id="EndEvent_191q29g" transform="translate(1143 395)" style="display: block;"><g class="djs-visual"><circle cx="18" cy="18" r="18" style="stroke: black; stroke-width: 4px; fill: white;"/></g><rect x="0" y="0" width="36" height="36" style="fill: none; stroke-opacity: 0; stroke: white; stroke-width: 15px;" class="djs-hit"/><rect x="-6" y="-6" width="48" height="48" style="fill: none;" class="djs-outline"/></g></g><g class="djs-group"><g class="djs-element djs-connection" data-element-id="SequenceFlow_1ktzpsq" style="display: block;"><g class="djs-visual"><path d="m  387,413L419,413 L419,413 L447,413 " style="fill: none; stroke-width: 2px; stroke: black; stroke-linejoin: round; marker-end: url('#sequenceflow-end-white-black');"/></g><polyline points="387,413 419,413 419,413 447,413 " style="fill: none; stroke-opacity: 0; stroke: white; stroke-width: 15px;" class="djs-hit"/><rect x="381" y="407" width="72" height="12" style="fill: none;" class="djs-outline"/></g></g><g class="djs-group"><g class="djs-element djs-shape" data-element-id="SequenceFlow_1ktzpsq_label" transform="translate(434 407)" style="display: none;"><g class="djs-visual"><text style="font-family: Arial,sans-serif; font-size: 11px;" class="djs-label"><tspan x="0" y="12"/></text></g><rect x="0" y="0" width="0" height="12" style="fill: none; stroke-opacity: 0; stroke: white; stroke-width: 15px;" class="djs-hit"/><rect x="-6" y="-6" width="12" height="24" style="fill: none;" class="djs-outline"/></g></g><g class="djs-group"><g class="djs-element djs-shape" data-element-id="StartEvent_1_label" transform="translate(333 431)" style="display: block;"><g class="djs-visual"><text style="font-family: Arial,sans-serif; font-size: 11px;" class="djs-label"><tspan x="17.5" y="12">prepare </tspan><tspan x="0" y="24">housenumbers </tspan></text></g><rect x="0" y="0" width="73" height="24" style="fill: none; stroke-opacity: 0; stroke: white; stroke-width: 15px;" class="djs-hit"/><rect x="-6" y="-6" width="85" height="36" style="fill: none;" class="djs-outline"/></g></g><g class="djs-group"><g class="djs-element djs-shape" data-element-id="EndEvent_191q29g_label" transform="translate(1125 435)" style="display: block;"><g class="djs-visual"><text style="font-family: Arial,sans-serif; font-size: 11px;" class="djs-label"><tspan x="0" y="12">housenumbers </tspan><tspan x="14.5" y="24">prepared </tspan></text></g><rect x="0" y="0" width="73" height="24" style="fill: none; stroke-opacity: 0; stroke: white; stroke-width: 15px;" class="djs-hit"/><rect x="-6" y="-6" width="85" height="36" style="fill: none;" class="djs-outline"/></g></g><g class="djs-group"><g class="djs-element djs-connection" data-element-id="SequenceFlow_10ot6gq" style="display: block;"><g class="djs-visual"><path d="m  547,413L582,413 " style="fill: none; stroke-width: 2px; stroke: black; stroke-linejoin: round; marker-end: url('#sequenceflow-end-white-black');"/></g><polyline points="547,413 582,413 " style="fill: none; stroke-opacity: 0; stroke: white; stroke-width: 15px;" class="djs-hit"/><rect x="541" y="407" width="47" height="12" style="fill: none;" class="djs-outline"/></g></g><g class="djs-group"><g class="djs-element djs-shape" data-element-id="SequenceFlow_10ot6gq_label" transform="translate(564.5 392)" style="display: none;"><g class="djs-visual"><text style="font-family: Arial,sans-serif; font-size: 11px;" class="djs-label"><tspan x="0" y="12"/></text></g><rect x="0" y="0" width="0" height="12" style="fill: none; stroke-opacity: 0; stroke: white; stroke-width: 15px;" class="djs-hit"/><rect x="-6" y="-6" width="12" height="24" style="fill: none;" class="djs-outline"/></g></g><g class="djs-group"><g class="djs-element djs-connection" data-element-id="SequenceFlow_14iwpc7" style="display: block;"><g class="djs-visual"><path d="m  682,413L718,413 " style="fill: none; stroke-width: 2px; stroke: black; stroke-linejoin: round; marker-end: url('#sequenceflow-end-white-black');"/></g><polyline points="682,413 718,413 " style="fill: none; stroke-opacity: 0; stroke: white; stroke-width: 15px;" class="djs-hit"/><rect x="676" y="407" width="48" height="12" style="fill: none;" class="djs-outline"/></g></g><g class="djs-group"><g class="djs-element djs-shape" data-element-id="SequenceFlow_14iwpc7_label" transform="translate(700 392)" style="display: none;"><g class="djs-visual"><text style="font-family: Arial,sans-serif; font-size: 11px;" class="djs-label"><tspan x="0" y="12"/></text></g><rect x="0" y="0" width="0" height="12" style="fill: none; stroke-opacity: 0; stroke: white; stroke-width: 15px;" class="djs-hit"/><rect x="-6" y="-6" width="12" height="24" style="fill: none;" class="djs-outline"/></g></g><g class="djs-group"><g class="djs-element djs-connection" data-element-id="SequenceFlow_0bhg2ut" style="display: block;"><g class="djs-visual"><path d="m  818,413L855,413 " style="fill: none; stroke-width: 2px; stroke: black; stroke-linejoin: round; marker-end: url('#sequenceflow-end-white-black');"/></g><polyline points="818,413 855,413 " style="fill: none; stroke-opacity: 0; stroke: white; stroke-width: 15px;" class="djs-hit"/><rect x="812" y="407" width="49" height="12" style="fill: none;" class="djs-outline"/></g></g><g class="djs-group"><g class="djs-element djs-shape" data-element-id="SequenceFlow_0bhg2ut_label" transform="translate(836.5 392)" style="display: none;"><g class="djs-visual"><text style="font-family: Arial,sans-serif; font-size: 11px;" class="djs-label"><tspan x="0" y="12"/></text></g><rect x="0" y="0" width="0" height="12" style="fill: none; stroke-opacity: 0; stroke: white; stroke-width: 15px;" class="djs-hit"/><rect x="-6" y="-6" width="12" height="24" style="fill: none;" class="djs-outline"/></g></g><g class="djs-group"><g class="djs-element djs-connection" data-element-id="SequenceFlow_0aik255" style="display: block;"><g class="djs-visual"><path d="m  955,413L992,413 " style="fill: none; stroke-width: 2px; stroke: black; stroke-linejoin: round; marker-end: url('#sequenceflow-end-white-black');"/></g><polyline points="955,413 992,413 " style="fill: none; stroke-opacity: 0; stroke: white; stroke-width: 15px;" class="djs-hit"/><rect x="949" y="407" width="49" height="12" style="fill: none;" class="djs-outline"/></g></g><g class="djs-group"><g class="djs-element djs-shape" data-element-id="SequenceFlow_0aik255_label" transform="translate(973.5 392)" style="display: none;"><g class="djs-visual"><text style="font-family: Arial,sans-serif; font-size: 11px;" class="djs-label"><tspan x="0" y="12"/></text></g><rect x="0" y="0" width="0" height="12" style="fill: none; stroke-opacity: 0; stroke: white; stroke-width: 15px;" class="djs-hit"/><rect x="-6" y="-6" width="12" height="24" style="fill: none;" class="djs-outline"/></g></g><g class="djs-group"><g class="djs-element djs-connection" data-element-id="SequenceFlow_169g0zc" style="display: block;"><g class="djs-visual"><path d="m  1092,413L1143,413 " style="fill: none; stroke-width: 2px; stroke: black; stroke-linejoin: round; marker-end: url('#sequenceflow-end-white-black');"/></g><polyline points="1092,413 1143,413 " style="fill: none; stroke-opacity: 0; stroke: white; stroke-width: 15px;" class="djs-hit"/><rect x="1086" y="407" width="63" height="12" style="fill: none;" class="djs-outline"/></g></g><g class="djs-group"><g class="djs-element djs-shape" data-element-id="SequenceFlow_169g0zc_label" transform="translate(1117.5 392)" style="display: none;"><g class="djs-visual"><text style="font-family: Arial,sans-serif; font-size: 11px;" class="djs-label"><tspan x="0" y="12"/></text></g><rect x="0" y="0" width="0" height="12" style="fill: none; stroke-opacity: 0; stroke: white; stroke-width: 15px;" class="djs-hit"/><rect x="-6" y="-6" width="12" height="24" style="fill: none;" class="djs-outline"/></g></g><g style="pointer-events: none;" class="djs-drag-group" transform="translate(303 255)"/><g style="pointer-events: none;" class="djs-drag-group" transform="translate(-43 5)"/><g style="pointer-events: none;" class="djs-drag-group" transform="translate(-5 23)"/><g style="pointer-events: none;" class="djs-drag-group" transform="translate(-7 -18)"/><g style="pointer-events: none;" class="djs-drag-group" transform="translate(-76 0)"/><g style="pointer-events: none;" class="djs-drag-group" transform="translate(-79 23)"/><g style="pointer-events: none;" class="djs-drag-group" transform="translate(-133 10)"/><g style="pointer-events: none;" class="djs-drag-group" transform="translate(-138 10)"/><g style="pointer-events: none;" class="djs-drag-group" transform="translate(-17 0)"/><g style="pointer-events: none;" class="djs-drag-group" transform="translate(-188 10)"/><g style="pointer-events: none;" class="djs-drag-group" transform="translate(-194 10)"/><g style="pointer-events: none;" class="djs-drag-group" transform="translate(-194 10)"/><g style="pointer-events: none;" class="djs-drag-group" transform="translate(-3 10)"/><g style="pointer-events: none;" class="djs-drag-group" transform="translate(-46 -8)"/></svg>